<?xml version="1.0" encoding="UTF-8"?> <svg xmlns="http://www.w3.org/2000/svg" width="383" height="82" fill="none"> <ellipse cx="75.53" cy="2.5" rx="2.501" ry="2.5" fill="#fff"></ellipse> <path d="M20.725 81.5v.5h-.226l-.149-.169.375-.331ZM1.149 61.776l-.347.36-.152-.145-.001-.211.5-.004Zm0-59.276-.5-.008L.657 2h.492v.5Zm259.459 79 .353.354-.146.146h-.207v-.5Zm25.01-25-.353-.354.146-.146h.207v.5ZM102.542 82H20.725v-1h81.817v1Zm-82.192-.169c-2.749-3.108-7.63-8.028-11.836-12.18A856.87 856.87 0 0 0 .961 62.29l-.118-.114a11.381 11.381 0 0 1-.03-.029l-.008-.007-.002-.002.346-.361.346-.361.002.002.008.008.03.029a107.689 107.689 0 0 1 .575.553 860.433 860.433 0 0 1 7.106 6.933c4.203 4.149 9.109 9.091 11.883 12.229l-.749.662ZM1.15 61.776l-.5.004v-.028l-.001-.083-.003-.327a2755.989 2755.989 0 0 1-.043-5.905C.575 51.502.544 46.038.523 39.926.481 27.702.481 12.879.65 2.492l1 .016c-.168 10.376-.168 25.19-.126 37.414a4878.428 4878.428 0 0 0 .122 21.412l.003.326V61.77l-.5.006ZM1.149 2h71.88v1H1.15V2Zm101.393 79h158.066v1H102.542v-1Zm157.713.146 25.01-25 .707.708-25.011 25-.706-.708ZM285.618 56h95.54v1h-95.54v-1Z" fill="#fff"></path> <path d="M1.501 70v-1.207l.854.853 11.004 11 .854.854H1.501V70Z" fill="#fff" stroke="#fff"></path> <path d="M375.156 62c.44-1.907 2.201-5.28 7.043-5.28M375.156 51c.44 1.907 2.201 5.28 7.043 5.28" stroke="#fff" stroke-width=".88"></path> </svg> 